<?xml version="1.0" encoding="UTF-8" standalone="no"?>
<svg xmlns="http://www.w3.org/2000/svg"
   version="1.1"
   width="61.44"
   height="61.44"
   viewBox="0 0 61.44 61.44">
   <path
      fill="#fff"
      d="M 30.853516 3.5507812 C 15.791355 3.5507812 3.6660156 15.67612 3.6660156 30.738281 L 3.6660156 31.09375 C 3.6660156 46.155911 15.791355 58.28125 30.853516 58.28125 C 45.915677 58.28125 58.041016 46.155911 58.041016 31.09375 L 58.041016 30.738281 C 58.041016 15.67612 45.915677 3.5507813 30.853516 3.5507812 z M 30.853516 7.84375 C 43.553353 7.84375 53.777344 18.067741 53.777344 30.767578 L 53.777344 31.064453 C 53.777344 43.764291 43.553353 53.990234 30.853516 53.990234 C 18.153677 53.990234 7.9296875 43.764291 7.9296875 31.064453 L 7.9296875 30.767578 C 7.9296875 18.067741 18.153677 7.84375 30.853516 7.84375 z M 28.298828 16.978516 L 28.298828 21.464844 C 24.699358 22.504217 22.149402 26.173226 21.912109 30 C 21.370518 34.586209 23.079744 39.656794 28.451172 40.855469 L 28.451172 44.798828 L 33.005859 44.798828 L 33.005859 41.023438 C 34.499703 40.83673 35.976865 40.400405 37.291016 39.625 L 36.181641 36.113281 C 32.119587 38.09718 27.084712 37.101463 26.548828 31.900391 C 25.997951 26.55379 29.804883 23.627237 36.181641 26.132812 L 37.214844 22.142578 C 35.839215 21.498133 34.353943 21.130696 32.853516 20.998047 L 32.853516 16.978516 C 31.335385 16.978513 29.816958 16.978528 28.298828 16.978516 z " />
</svg>
