<?xml version="1.0" encoding="UTF-8" standalone="no"?>
<svg xmlns="http://www.w3.org/2000/svg"
   version="1.1"
   width="61.44"
   height="61.44"
   viewBox="0 0 61.44 61.44">
   <path
      fill="#fff"
      d="m 36.528793,56.218792 c -0.72695,-0.875922 -0.971387,-2.477145 -0.602511,-3.946861 0.732365,-2.917974 4.910068,-3.037794 6.691979,-0.191932 2.211105,3.53132 -3.418262,7.357399 -6.089468,4.138793 z M 23.596957,52.927553 c -7.31529,-2.017777 -8.694927,-4.542157 -1.927792,-3.527362 6.318655,0.947541 11.223663,2.675082 11.69737,4.119808 0.516783,1.576101 -2.590917,1.387644 -9.769578,-0.592446 z M 8.8319998,50.687999 c -3.1039955,-3.103996 1.6827652,-8.394094 5.0595702,-5.591594 2.727378,2.263522 1.151837,6.743594 -2.37157,6.743594 -0.8448,0 -2.0544002,-0.5184 -2.6880002,-1.152 z M 43.199999,49.008085 c 0,-1.175772 4.222909,-9.789282 6.519249,-13.297378 3.329148,-5.085907 2.886575,-0.07134 -0.577836,6.547151 -3.405758,6.506439 -5.941413,9.387277 -5.941413,6.750227 z M 34.2465,27.610064 l -9.162258,-0.78205 -4.055367,7.794928 c -3.70557,7.122573 -5.887434,9.638499 -7.210939,8.314993 -0.274592,-0.274592 1.256039,-3.990371 3.401403,-8.257287 4.721557,-9.390711 4.714959,-8.607747 0.07878,-9.349102 -5.302793,-0.84795 -9.6018417,-5.036725 0.34391,-3.178639 5.7781,0.773634 6.077571,0.80504 8.414082,-4.477032 4.193731,-9.4806241 4.577165,-3.39616 2.449918,1.518863 l -1.667719,3.85328 6.761688,0.566444 v -5.087231 c 0,-7.210561 2.655063,-7.251411 3.069831,-0.04723 l 0.304673,5.257911 6.008291,0.673704 c 7.480035,0.83873 7.357647,2.842525 -0.163966,3.238241 l -5.284945,5.02e-4 0.27046,2.879498 c 0.936858,9.974407 1.867656,19.261125 0.01941,17.235522 -1.189889,-1.304077 -2.048137,-7.251722 -2.290211,-9.294505 z M 6.9290885,26.149696 C 8.5972575,26.705752 11.077461,41.146538 9.7353086,42.48869 7.2383994,44.985601 4.296483,25.27216 6.9290885,26.149696 Z m 45.2795905,4.14638 c -1.440286,-3.753325 2.073226,-7.64671 5.15132,-5.70827 3.625295,2.283042 2.060481,7.092193 -2.307677,7.092193 -1.27192,0 -2.55156,-0.622765 -2.843643,-1.383923 z M 3.8838535,23.57284 C 1.725917,20.972685 3.0281304,17.76 6.2399999,17.76 c 3.5034096,0 4.6881861,3.854564 1.8276865,5.946213 C 5.8892573,25.299119 5.3009741,25.280366 3.8838535,23.57284 Z M 48.433525,18.48 C 41.510791,12.066138 37.267149,5.3460998 41.382596,7.3144698 44.543756,8.8264154 56.020836,22.08 54.168961,22.08 c -1.017398,0 -3.598344,-1.62 -5.735436,-3.6 z M 10.946384,17.128526 c -0.766113,-1.239597 -0.369968,-1.576164 9.041112,-7.681385 6.911078,-4.4834023 11.203042,-3.9357656 5.452503,0.695717 -5.13875,4.138748 -13.702211,8.266186 -14.493615,6.985668 z M 30.911999,9.4079998 c -2.587496,-2.5874967 -0.570337,-6.5279999 3.34171,-6.5279999 2.329122,0 3.905213,3.4618283 2.839953,6.2378533 -0.662142,1.7255118 -4.563195,1.9086148 -6.181663,0.2901466 z"/>
</svg>
