<?xml version="1.0" encoding="UTF-8" standalone="no"?>
<svg xmlns="http://www.w3.org/2000/svg"
   version="1.1"
   width="61.44"
   height="61.44"
   viewBox="0 0 61.44 61.44">
   <path
      fill="#fff"
      d="M 19.55907,51.565876 C 3.7736672,50.890523 4.3028714,51.230091 4.3051461,29.279999 4.307231,9.1610334 1.3415598,11.132901 30.669853,11.750167 60.295476,12.373691 57.372578,10.1206 56.939394,31.999824 56.511815,53.595952 57.59676,53.193257 19.55907,51.565876 Z M 52.642274,33.360507 c 0.215911,-7.784985 0.269632,-14.79336 0.269632,-14.79336 -1.056244,0.852738 -18.578779,14.166004 -22.191907,14.11742 -2.890541,-0.03887 -15.427045,-8.421034 -22.1697043,-13.510587 0,0 0.2004976,6.049572 0.068189,12.587606 -0.3006383,14.85605 -0.446875,15.622813 20.9971294,15.647254 22.900208,0.0261 22.660164,-0.833734 23.026661,-14.048333 z M 49.362408,16.137746 c 0,0 -8.263605,-0.284437 -19.678357,-0.663936 -16.085971,-0.5348 -18.902237,-0.119776 -18.902237,-0.119776 5.625557,3.772415 16.559185,12.18397 19.938185,12.209512 3.42676,0.0259 15.425112,-8.663855 18.642409,-11.4258 z"/>
</svg>
