<?xml version="1.0" encoding="UTF-8" standalone="no"?>
<!-- Created with Inkscape (http://www.inkscape.org/) -->

<svg
   width="128"
   height="128"
   viewBox="0 0 128 128"
   version="1.1"
   id="svg5"
   inkscape:version="1.2.2 (b0a8486541, 2022-12-01)"
   sodipodi:docname="logo.svg"
   xmlns:inkscape="http://www.inkscape.org/namespaces/inkscape"
   xmlns:sodipodi="http://sodipodi.sourceforge.net/DTD/sodipodi-0.dtd"
   xmlns="http://www.w3.org/2000/svg"
   xmlns:svg="http://www.w3.org/2000/svg">
  <sodipodi:namedview
     id="namedview7"
     pagecolor="#505050"
     bordercolor="#eeeeee"
     borderopacity="1"
     inkscape:showpageshadow="0"
     inkscape:pageopacity="0"
     inkscape:pagecheckerboard="true"
     inkscape:deskcolor="#505050"
     inkscape:document-units="px"
     showgrid="true"
     inkscape:zoom="2.9351129"
     inkscape:cx="51.27571"
     inkscape:cy="90.967538"
     inkscape:window-width="1503"
     inkscape:window-height="933"
     inkscape:window-x="0"
     inkscape:window-y="0"
     inkscape:window-maximized="1"
     inkscape:current-layer="layer2">
    <inkscape:grid
       type="xygrid"
       id="grid132"
       empspacing="8" />
  </sodipodi:namedview>
  <defs
     id="defs2" />
  <g
     inkscape:groupmode="layer"
     id="layer2"
     inkscape:label="Layer 2">
    <circle
       style="fill:#2d3132;stroke-width:3.884;stroke-linecap:round;stroke-linejoin:round;fill-opacity:1"
       id="path233"
       cx="64"
       cy="64"
       r="64" />
    <path
       id="path6128"
       style="font-size:40px;line-height:1.25;font-family:'linja pona 4.2';-inkscape-font-specification:'linja pona 4.2, Normal';fill:#5ddfd2;fill-opacity:1;stroke-width:3.77084;stroke-dasharray:none"
       d="m 43.666516,32 c -4.97684,0 -9.20054,4.223701 -9.20054,9.200541 0,4.97684 4.2237,9.200541 9.20054,9.200541 4.976841,0 9.196936,-4.223701 9.196936,-9.200541 C 52.863452,36.223701 48.643357,32 43.666516,32 Z m 40.683191,0 c -4.968538,0 -9.333934,4.215779 -9.333934,9.184317 0,4.968538 4.365396,9.18612 9.333934,9.18612 4.968538,0 9.184317,-4.217582 9.184317,-9.18612 C 93.534024,36.215779 89.318245,32 84.349707,32 Z M 33.492564,62.092835 C 29.262399,64.890569 27.08247,69.588422 27.08247,76.191077 27.08247,86.93438 34.261561,96 46.182965,96 54.51513,96 61.820816,91.076922 64,85.705273 66.179184,91.076922 73.48487,96 81.817035,96 c 11.921404,0 19.100495,-9.06562 19.100495,-19.808923 0,-6.602655 -2.179924,-11.300508 -6.410094,-14.098242 l -6.511041,3.817936 c 3.07649,2.350095 3.947724,5.692905 3.947724,9.609734 0,7.274113 -4.100864,10.85534 -12.176657,10.85534 -7.819414,0 -11.666516,-3.804162 -11.666516,-11.525913 l -0.409193,-0.447048 h -7.383506 l -0.409193,0.447048 c 0,7.721751 -3.847102,11.525913 -11.666516,11.525913 -8.075793,0 -12.176657,-3.581227 -12.176657,-10.85534 0,-3.916829 0.871234,-7.259639 3.947724,-9.609734 z" />
  </g>
</svg>
