<?xml version="1.0" encoding="UTF-8" standalone="no"?>
<svg xmlns="http://www.w3.org/2000/svg"
   version="1.1"
   width="245.75999"
   height="245.75999"
   viewBox="0 0 245.75999 245.75999">
   <path
      fill="#fff"
      d="M 124.02148 22.380859 C 98.735647 22.193722 73.065659 31.502701 52.763672 51.804688 C -5.3554568 109.92382 27.59856 209.77631 109.16406 222.70117 C 179.74368 233.88522 240.65716 164.39518 220.64844 95.519531 C 207.24524 49.381957 166.16455 22.692755 124.02148 22.380859 z M 124.0293 31.994141 C 136.80834 31.94739 147.78947 33.911703 144.5918 37.109375 C 140.46207 41.239097 140.19741 48.6092 143.87695 56.992188 C 148.95614 68.563935 149.01324 69.138858 145.76758 76.015625 C 144.1936 79.350496 142.01442 83.033275 140.92578 84.197266 C 137.88492 87.44859 138.90187 94.512951 143.37891 101.25586 C 145.30487 104.15658 146.88086 107.15975 146.88086 107.92969 C 146.88086 110.62287 142.89135 116.16016 140.95117 116.16016 C 134.94643 116.16016 131.29055 126.06835 135.59961 130.66406 C 146.98731 142.80935 159.95308 141.74789 166.61719 128.12695 C 168.04864 125.20117 170.13362 122.32664 171.25 121.73828 C 172.36637 121.14992 175.65655 118.83444 178.56055 116.59375 C 190.49571 107.38469 202.56037 106.63896 202.56055 115.10938 C 202.56064 119.62718 183.03123 137.2793 178.0332 137.2793 C 166.68646 137.2793 158.11118 143.39069 155.58594 153.27539 C 155.06813 155.3023 153.50567 160.63115 152.11328 165.11914 C 147.18718 180.99712 148.69683 186.13771 160.53516 193.77734 C 172.511 201.50573 172.35369 200.6373 162.59961 205.16602 C 157.91334 207.3418 150.40792 210.07449 145.91992 211.24023 C 112.17045 220.00661 96.339229 209.06471 92.603516 174.38477 C 91.292375 162.21299 90.359055 159.35938 87.679688 159.35938 C 86.928339 159.35937 85.152848 158.20167 83.736328 156.78516 C 75.695248 148.74408 64.368844 148.61271 57.443359 156.48047 C 46.906312 168.45117 39.255624 161.37018 37.736328 138.24023 C 37.025827 127.42348 38.615962 124.88473 44.919922 126.77344 C 48.329739 127.79505 48.960938 128.37558 48.960938 130.49805 C 48.960938 133.78643 51.460563 137.2793 53.814453 137.2793 C 55.317065 137.2793 55.679688 136.60543 55.679688 133.81641 C 55.679688 131.13285 56.00316 130.47801 57.119141 130.90625 C 60.244815 132.10568 58.928597 119.6595 54.644531 107.51953 C 48.627201 90.467919 48.832627 75.674808 55.259766 63.246094 C 59.897268 54.278154 84.761344 38.862711 101.75977 34.417969 C 108.04744 32.773869 116.36187 32.022191 124.0293 31.994141 z M 118.36328 61.203125 C 115.26448 61.25762 112.11047 65.259294 112.67383 69.478516 C 112.65753 75.597265 111.4556 78.703107 115.85938 83.740234 C 121.16332 89.394131 132.10891 87.486601 135.11914 80.355469 C 136.04679 75.846588 133.50593 71.324848 130.59766 68.041016 C 127.87448 65.041485 124.12108 63.324072 120.45312 61.841797 C 119.7903 61.38814 119.07839 61.190549 118.36328 61.203125 z"/>
</svg>
