<?xml version="1.0" encoding="UTF-8"?>
<svg xmlns="http://www.w3.org/2000/svg" width="32" height="32" version="1.1" viewBox="0 0 8.4667 8.4667">
  <path d="m4.2333 1.1526-3.5574 2.0538 0.3423 0.59302 3.2151-1.8559 3.2151 1.8559 0.3423-0.59302zm0 2.0538a2.2204 2.2204 0 0 0-2.2203 2.2203 2.2204 2.2204 0 0 0 2.2203 2.2203 2.2204 2.2204 0 0 0 2.2203-2.2203 2.2204 2.2204 0 0 0-2.2203-2.2203zm0 0.68461a1.5357 1.5357 0 0 1 1.5357 1.5357 1.5357 1.5357 0 0 1-1.5357 1.5357 1.5357 1.5357 0 0 1-1.5357-1.5357 1.5357 1.5357 0 0 1 1.5357-1.5357z" fill="#fff" stroke-width=".37006"/>
</svg>
