<?xml version="1.0" encoding="UTF-8" standalone="no"?>
<svg xmlns="http://www.w3.org/2000/svg"
   version="1.1"
   width="245.75999"
   height="245.75999"
   viewBox="0 0 245.75999 245.75999">
   <path
      fill="#fff"
      d="m 43.878213,219.23821 c -0.375898,-0.3759 2.233727,-2.26023 5.799167,-4.1874 10.722635,-5.79574 51.7029,-83.3538 61.22752,-115.87745 C 121.29714,63.6871 86.259252,18.293952 68.401626,44.108466 c -4.255607,6.151793 -5.673175,4.092927 -2.277941,-3.308467 10.114118,-22.048135 52.088935,-14.959474 63.445825,10.714662 4.62094,10.446411 6.8984,22.640881 9.11496,48.805339 6.21567,73.37043 17.42139,107.85911 35.44753,109.09955 7.5636,0.52047 11.83425,-1.04264 17.95384,-6.57132 l 3.81116,-3.44315 -1.05192,2.76676 c -5.32378,14.0026 -16.18434,18.80336 -35.48508,15.6857 -19.48319,-3.14714 -33.68018,-24.85197 -39.65346,-60.62353 -1.20918,-7.24129 -2.42907,-13.39654 -2.71085,-13.67832 -0.74344,-0.74344 -17.206773,35.05539 -27.006942,53.0685 -8.261669,15.1853 -8.34998,15.54997 -4.541813,18.75433 1.993646,1.67754 2.589095,2.6807 1.748241,2.94527 -2.387931,0.75136 -42.630506,1.60088 -43.316963,0.91442 z"/>
</svg>
