<?xml version="1.0" encoding="UTF-8" standalone="no"?>
<svg xmlns="http://www.w3.org/2000/svg"
   version="1.1"
   width="245.75999"
   height="245.75999"
   viewBox="0 0 245.75999 245.75999">
   <path
      fill="#fff"
      d="m 124.23227,225.45806 c -0.93388,-1.51107 -2.28567,-31.08003 -1.64445,-35.97071 0.4987,-3.80365 10.83387,-7.07192 14.73635,-4.66005 2.16782,1.33979 8.09081,35.24878 6.63285,37.973 -1.38489,2.58769 -18.35487,4.87427 -19.72475,2.65776 z m -41.930476,-9.54607 c -10.852184,-4.2942 -11.462512,-6.29415 -5.261796,-17.24213 2.244,-3.962 4.944,-8.84231 6,-10.84512 4.152924,-7.87645 6.482192,-9.78666 10.165184,-8.33638 5.602577,2.20619 9.515408,4.92019 9.500848,6.58993 -0.0358,4.10058 -10.010854,27.86057 -12.662695,30.16171 -2.26806,1.9681 -1.899408,1.98372 -7.741541,-0.32801 z M 169.92,200.01152 c -3.432,-5.6021 -7.86,-12.79877 -9.84,-15.9926 -1.98,-3.19383 -3.6,-6.37124 -3.6,-7.0609 0,-0.68967 1.62,-2.33475 3.6,-3.65575 1.98,-1.32099 4.59332,-3.12126 5.80738,-4.0006 2.77903,-2.01282 5.77349,0.6432 18.54625,16.4501 10.71145,13.25593 10.63262,14.09237 -2.08462,22.12041 -5.41662,3.41936 -5.58303,3.31412 -12.42901,-7.86066 z M 45.235713,183.9426 c -8.157114,-10.42106 -8.004887,-10.69121 12.844286,-22.79443 11.914493,-6.91651 12.50927,-6.95158 16.559999,-0.97636 5.419455,7.99422 5.512165,7.83668 -12.656977,21.50819 -10.40636,7.83034 -12.199514,8.0726 -16.747308,2.2626 z M 202.56,171.87128 c -0.792,-0.44869 -4.68,-2.64738 -8.64,-4.88597 -18.63406,-10.53383 -18.71023,-10.62673 -14.89117,-18.16328 3.99075,-7.87537 3.06746,-7.90087 23.53117,0.64986 12.50484,5.22514 13.84909,6.56721 11.95501,11.93561 -3.59665,10.19399 -7.06807,13.23239 -11.95501,10.46378 z m -87.25601,-5.86962 C 93.49845,161.7193 77.799225,139.27067 81.402547,117.52531 87.182968,82.641583 129.34333,68.73811 154.14261,93.537389 c 29.76523,29.765241 2.52591,80.587781 -38.83862,72.464271 z M 25.070956,142.14857 c -1.589761,-0.98252 -2.8937,-7.42947 -2.949147,-14.5812 -0.08761,-11.30001 40.319115,-9.39414 40.891981,1.92876 0.417302,8.24811 1.227873,7.71806 -16.074281,10.51131 -16.622884,2.68359 -20.393497,3.05277 -21.868553,2.14113 z M 189.12,127.84004 c -2.65506,-0.79653 -4.16094,-12.33989 -1.95633,-14.99628 1.74458,-2.10208 30.61814,-5.97904 33.40822,-4.48584 2.78154,1.48863 4.38118,14.86289 2.19171,18.32439 -0.98973,1.56475 -29.06638,2.53091 -33.6436,1.15773 z M 49.919999,97.040184 C 25.906987,88.31963 24.824801,86.678567 33.65998,72.382948 c 2.511343,-4.063439 18.585499,2.143416 33.540018,12.951102 1.848,1.335557 3.522703,2.536461 3.721562,2.668678 0.198859,0.132216 -0.869272,3.06569 -2.373623,6.518831 -3.360075,7.712831 -4.063292,7.807911 -18.627938,2.518625 z M 178.86732,94.326159 c -0.91576,-1.455389 -2.65553,-3.867306 -3.86617,-5.359817 -3.71168,-4.57588 -1.4531,-7.591438 15.92633,-21.264144 11.85786,-9.328792 11.07709,-9.149586 16.14842,-3.7065 3.84285,4.124562 8.61314,11.634796 7.79107,12.266092 -2.23557,1.716768 -27.27613,17.15426 -30.28081,18.6681 -4.05383,2.04243 -4.05383,2.04243 -5.71884,-0.603731 z M 83.323313,72.719998 C 72.520797,64.21215 63.188815,46.299575 67.439998,42.232257 78.257931,31.882204 82.575617,34.753977 95.874344,61.144466 99.08658,67.518947 88.784033,77.020754 83.323313,72.719998 Z M 148.56,69.363572 c -6.58775,-2.935831 -6.65707,-3.310102 -2.72331,-14.703489 9.14332,-26.48183 9.87805,-27.174592 22.53781,-21.250377 7.7339,3.619132 7.7216,3.272091 0.5855,16.510293 -3.168,5.876966 -5.76,10.986946 -5.76,11.355511 0,1.528891 -6.86408,10.717498 -7.94551,10.636269 -0.64597,-0.04852 -3.65849,-1.195214 -6.69449,-2.548207 z m -35.9121,-8.042609 c -1.07239,-1.326426 -2.11808,-7.058311 -4.33428,-23.758025 -1.45223,-10.943019 -0.67598,-12.051488 9.17866,-13.10683 8.64188,-0.925467 9.87317,-0.04631 10.69599,7.637077 0.74711,6.976441 0.2831,27.91544 -0.63905,28.837588 -1.39871,1.398716 -13.82293,1.724043 -14.90132,0.39019 z"/>
</svg>
