<?xml version="1.0" encoding="UTF-8" standalone="no"?>
<svg xmlns="http://www.w3.org/2000/svg"
   version="1.1"
   width="245.75999"
   height="245.75999"
   viewBox="0 0 245.75999 245.75999">
   <path
      fill="#fff"
      d="m 50.714618,221.75461 c -6.689352,-0.59626 -7.574685,-1.33781 -3.878917,-3.24897 9.7277,-5.03039 12.712462,-10.59708 13.101247,-24.4343 0.416275,-14.8156 1.683296,-18.7209 8.153562,-25.13151 8.594453,-8.5152 17.452355,-10.62448 23.697484,-5.64293 2.052602,1.6373 5.768493,4.01272 8.257536,5.27871 6.17966,3.14313 6.96967,4.941 6.91825,15.74439 -0.12547,26.36425 -21.424097,40.53879 -56.249162,37.43461 z m 46.913329,-59.49347 c -5.581828,-3.53989 -5.673384,-2.47238 1.443029,-16.82524 l 5.950974,-12.00234 2.92903,2.83404 c 1.61096,1.55873 4.99123,3.74491 7.51171,4.85818 2.97063,1.3121 4.34556,2.42693 3.9086,3.16918 -11.16066,18.95808 -15.07684,22.19395 -21.743343,17.96618 z m 19.472323,-26.25911 c -3.70457,-1.71781 -6.22287,-3.76249 -7.885,-6.40203 l -1.51129,-2.4 5.75874,-12 c 25.73909,-53.634859 74.05601,-116.8930447 76.44369,-100.082737 1.18266,8.326502 -31.31542,72.860431 -50.46446,100.211137 -16.46247,23.51345 -16.38066,23.43775 -22.34168,20.67363 z"/>
</svg>
