<?xml version="1.0" encoding="UTF-8" standalone="no"?>
<svg xmlns="http://www.w3.org/2000/svg"
   version="1.1"
   width="245.75999"
   height="245.75999"
   viewBox="0 0 245.75999 245.75999">
   <path
      fill="#fff"
      d="m 74.278271,215.26333 -3.001727,-0.32734 -2.925862,-9.308 C 63.962382,191.66757 60.367998,178.23878 52.369081,145.92 48.383332,129.816 44.040415,112.968 42.718155,108.48 41.395894,103.992 37.295523,89.519998 33.60622,76.319998 l -6.707825,-23.999999 -2.422067,-2.125023 -2.422068,-2.125023 -5.779254,-1.193685 -5.779253,-1.193686 0.283093,-1.481291 0.283094,-1.481292 8.62903,-0.250652 c 4.745966,-0.137858 14.642125,0.07814 21.991463,0.48 l 13.362434,0.730652 0.36728,1.109143 c 0.202004,0.610028 -1.146451,1.608719 -2.996567,2.219312 l -3.363847,1.11017 -0.57864,1.823132 C 47.135562,54.155944 64.893089,126.80006 76.275895,163.68 l 1.185196,3.84 1.06969,-3.84 c 1.224475,-4.39565 8.279722,-34.35078 10.287828,-43.68 0.738735,-3.432 2.911703,-12.936 4.828818,-21.120002 6.219151,-26.54902 9.048733,-40.707545 9.060773,-45.337868 l 0.0118,-4.537869 -2.16,-1.347922 C 99.371998,46.914981 97.181309,46.02509 95.6918,45.678801 l -2.708198,-0.629615 0.396168,-1.164593 0.396169,-1.164594 29.125451,0.221424 29.12545,0.221424 0.89783,0.897824 0.89782,0.897824 -5.36753,2.539248 c -6.12233,2.896325 -8.20046,5.479178 -10.50026,13.050501 l -1.62453,5.348245 1.87334,8.571754 c 4.53552,20.752912 17.11841,68.495467 23.51238,89.211757 l 1.1852,3.84 1.06969,-3.84 c 1.22447,-4.39565 8.27972,-34.35078 10.28783,-43.68 0.73873,-3.432 2.9117,-12.936 4.82882,-21.120002 6.1781,-26.373779 9.04869,-40.697414 9.06077,-45.211211 l 0.0118,-4.411212 -1.68,-1.481946 c -0.924,-0.81507 -3.10689,-1.785376 -4.85086,-2.156234 l -3.17085,-0.674288 0.37446,-1.112554 0.37446,-1.112554 29.19639,0.340305 c 16.05802,0.187168 29.57046,0.690829 30.02764,1.119248 l 0.83125,0.778943 -5.36753,2.539248 c -9.07379,4.292592 -11.20706,10.097488 -22.19272,60.389377 -4.57603,20.94884 -6.59381,29.60186 -16.25618,69.71288 -3.49773,14.52 -6.91024,28.776 -7.58334,31.68 l -1.22382,5.28 -10.99945,0.59786 c -6.0497,0.32882 -12.79171,0.3841 -14.98224,0.12283 l -3.98279,-0.47502 -2.9048,-9.24284 c -4.34214,-13.81634 -7.85783,-26.96454 -16.84629,-63.00283 -4.47748,-17.952 -8.54665,-33.72 -9.04261,-35.04 l -0.90175,-2.4 -0.69963,3.36 c -1.39305,6.69016 -8.4463,36.53963 -14.40447,60.96 -3.34941,13.728 -7.04227,29.28 -8.20637,34.56 -2.4925,11.30524 -8.365767,13.55608 -29.390229,11.26333 z"/>
</svg>
