<?xml version="1.0" encoding="UTF-8"?>
<svg width="245.76" height="245.76" version="1.1" viewBox="0 0 245.76 245.76" xmlns="http://www.w3.org/2000/svg">
 <path d="m179.01 215.27 43.849-162.95c0.85018-3.1729 4.8441-4.25 4.8441-4.25l11.559-2.3874-0.48588-3.1689-42.862 0.03116-1.5688 2.2443c2.4954 1.06 3.9917 1.6431 6.3604 3.3295 0.50274 0.50274 0.81659 0.93508 0.57864 1.8231l-29.83 116.29-24.405-112.69c-0.8645-3.2264-0.72301-3.8267-0.0118-4.5379 2.9024-2.1404 6.2645-3.1509 9.7364-3.9551l-0.83783-2.499-57.43 0.0039-2.5711 2.4044 5.3675 2.5392c6.1223 2.8963 8.2005 5.4792 10.5 13.051l1.6245 5.3482-1.8733 8.5718-24.698 93.052-25.247-113.85c-0.63513-3.0229-0.56717-3.7816-0.0118-4.4112 1.7173-1.7173 3.5735-3.0093 9.7017-4.3125l-0.76346-2.3895-57.777-0.01545-2.2639 2.4183 5.3675 2.5392c9.0738 4.2926 11.207 10.097 22.193 60.389l25.441 107.29 29.587 0.0786 29.695-110.14 25.939 110.2c10.098-0.0106 20.195-0.0669 30.293-0.0555z" fill="#fff"/>
</svg>
