<svg xmlns="http://www.w3.org/2000/svg" viewBox="0 0 983 983"><path fill="#fff" d="M130 978c7-75 18-118 37-147 12-18 50-60 59-64l3-2 9 1c28 1 53 8 95 24l25 9 34 14 6 3 3 8 28 66c13 30 31 83 31 91v2H130zm459-1c-3-32-9-53-26-92-17-40-22-51-31-79-23-66-23-65-27-53-6 17-5 10 2-15 8-24 7-23 14-18 16 12 27 34 39 77a3120 3120 0 0 0 28 100c6 20 9 34 12 52l2 12v22h-12zM145 845l-3-7-1-4v-27l3-15c10-51 36-106 56-116 15-8 77-22 108-25h8l-3 4a371 371 0 0 1-33 40l-1 2-8-4-28-12 45 30c25 16 58 40 74 55l12 11 6 7c6 8 12 19 11 19l-12-5c-75-30-109-40-144-41l-15-1-18 17c-24 24-42 48-52 66l-4 8zm355-81 1-1v1c0 1 0 0 0 0h-1zm-67-17c-13-9-28-29-34-45l-2-6-1-24-9-9a150 150 0 0 1-31-45c-2-4-5-17-3-19l5 3 11 5h3l4-4-2-5-3-12-2-9-1-11-1-12 3-10 9-46v-3l6 1 6 2-3 19-4 18v20l1 4c6 22 19 40 41 57l21 12-5-11c-6-10-9-19-9-19l6 10a212 212 0 0 0 76 86l-2 4-2 4-11 4-17 1-18-2-13-5-13-4c-1 0 1 19 4 36l1 11v4l-2 2c-2 1-5 1-9-2zm8-2 1-1-1-5-2-15c-2-15-5-72-4-91v-10l-7-4-15-13-9-8v18c-5 58-5 61-3 76l1 9 3 7c7 17 31 43 36 37zm145-85c-14-5-52-25-58-30l-2-2v-4l-1-13-1-11 1-17a682 682 0 0 1 8-79c5-40 10-56 16-54l4 1v5l-2 8v4l3-2c13-9 16-9 33-7l13 2 24-1 14-3 14-7 13-13 5-9c5-9 8-19 10-27v-4h15l22 5-3 4-16 24-2 5v14l2 4 5 8 3 4 6 3 9 3 5 1h3v3a357 357 0 0 1-82 147l-9 10-10 8c-24 19-32 23-42 20zm75-78 2-4-27-12-11-3-13-3-16-2h-4l4 4 3 4 13 4a38289 38289 0 0 0 46 15h1zm-130 69-1-5-1-3 2 1h1v6l-1 2zm-99-56v-1l1 1h-1c-1 0 0 0 0 0zm-44-105c-3-1-17-3-35-4-12-1-14-1-21-5l-7-3-18-14-20-15v-1l4-4c5-5 3-11-5-14l-2-1-10 9-5-5 5-4 4-6c0-2-5-8-8-9l-2-1-11 9-14-15a929 929 0 0 1-84-98c0-2 23 0 38 4a528 528 0 0 1 79 26l6 3 2 6 4 15 1 7v19l-1 3-2 3-7 3-5-2c-9-2-27-12-44-24l-10-8-3-1 7 6c10 10 28 24 39 30l9 5h15l3-3c1-1 4-3 4-5l2-3v-22l-3-11-4-17-2-6h1l32 12 6 2-1 4c-15 43 6 88 40 88h3l-1-1-10-4-10-4-7-5-3-5-5-12-3-7-1-12-1-11 1-8c2-10 2-12 4-12 3 0 49 26 65 37l5 4v9c-1 17-4 48-7 63l-2 16-1-1h-4zm-114-41-2-3 3 3 2 3-3-3zm2-2-3-4 3-3 7 7-1 1c-2 3-3 3-6-1zm317 1c-15-3-28-8-39-16l-7-4 1-1 8-37c4-17 11-38 12-37l-2 6-3 13-1 6 1 1 2 1 7 1 15 3 11 2h1l-4 13-1 17 2 6c2 8 6 17 11 23s2 7-14 3zm-310-8-2-3c1 0 7 5 6 6l-4-3zm3-2-3-4h3l5 5-1 1c-1 1-2 1-4-2zm-29-5-1-3c2 1 5 6 4 6l-3-3zm3-3-3-3 2-2 1-1 7 6-2 2c-2 3-2 2-5-2zm7-6-3-3 1-1 6 7-4-3zm2-2-2-4c0-1 4 0 6 2l2 2-1 1c-1 2-2 2-5-1zm397-9c-5-1-5-1-4-7 2-5 3-6 7-7l4-1 1 2v1l-2 7c-2 7-1 7-6 5zm-268-44a541 541 0 0 0-100-38 649 649 0 0 0-137-30h-8c0-4 59-7 111-7l26 1 10 1 18 2c15 1 56 9 71 14l5 1 3 6 4 16 2 9 1 28-1-1c-1 0-3 0-5-2zm170-19 1-1v1h-1zm172-24c-4-17-5-22-8-25l-2-2h-3l-3 3a93 93 0 0 0-9 23l-2 6-1-2-2-8c-1-9-4-20-6-23l-1-2h-4l-2 3-7 16-3 6-3-15-3-16v-2l4 11 4 1 2-4c3-4 8-20 8-24 0-5 1-4 5 5 4 10 9 19 10 19 5 0 13-22 15-38l1-8 1-4 1 4 11 54 1 13-1 23z"/><path d="m119 978 3-20c2-25 8-59 14-83 5-17 5-15 1-22l-2-6-2-9-2-8v-7c0-44 26-116 53-146l6-6 6-3a485 485 0 0 1 127-28l2-1 5-7c6-10 12-21 15-31l2-6-3-2-24-22-8-9-5-9c-9-16-12-27-12-41v-7l-1 3-1 9v6h-1l-10 6-9 6-11 11c-12 12-14 13-16 11-2-3-6-16-8-27l-3-13v-17l2-8 4-15 2-9 7-2c7-2 6-3-3-1-22 6-53 3-65-5-3-3-4-2 7-13l10-10 5-8c6-9 9-15 14-26l3-7-1-2-14-17a1095 1095 0 0 1-57-77v-2l1-1 8-2a709 709 0 0 0 39-3l57-4h7l3-13 3-13c0-16 27-63 47-83a209 209 0 0 1 126-58l13-1h9l47 6c53 9 131 39 173 67 12 8 43 33 51 41l6 6 2 6c4 15 11 53 13 70l1 11v61l-2 11c-1 14 1 13-18 12h-16v1c-2 7-7 48-6 48l16 5h3l4 4v5c0 10-16 51-34 84-9 17-9 17-11 30l-1 12 1 43 3 12 4 18 1 6-2 2h-3a276 276 0 0 1-34-15l-19-10-10-5h-2l-13 8-14 9-5 2h-8l-8-3-24-11-16-7-1 1-4 9-3 8 3 11 6 17 3 6-2 3h-7l-15-7-1 3-2 6-1 4 3 2c24 18 36 44 54 115a517 517 0 0 0 13 43l6 23c6 18 9 30 11 44l3 14v16l1 16h-5l-1-12c-1-27-4-42-19-92a24682 24682 0 0 1-38-125c0-7-19-33-27-37l-3-2-2 4c-4 13-13 44-12 45l5-12 2-7 1 1 22 60a667 667 0 0 0 29 74c19 42 26 66 28 95l1 8H461l-1-3a756 756 0 0 0-63-164c-3-3-36-16-82-33l-20-7-35-9-10-1-16-1h-7l-3 2c-13 9-53 55-64 75-13 23-25 74-30 134l-1 7h-10zm43-157c11-15 24-30 46-53l11-12h8c33 0 103 20 158 45 8 3 8 3 5-3-11-19-32-39-71-66l-53-36-20-14-1-1 2 1a512 512 0 0 1 32 15l7-9a1048 1048 0 0 1 28-34l3-4h-4l-13 2c-28 3-87 17-100 23l-5 3-5 6c-21 25-40 68-48 112l-1 9v31l1 4 3 6 1 2 5-9 11-18zm280-71 2-3 1-2-2-14c-6-39-6-36 7-31l19 5 8 2h9c10 0 17-2 22-4l3-2 2-3c3-4 3-4-1-6a207 207 0 0 1-81-100c-1 1 5 16 10 25l5 10-2-1c-22-6-52-40-59-67l-1-6 1-22 3-15 4-17v-1l-6-2-7-2h-1l1 2-1 8-4 19-5 22-2 8 1 13v13l3 9 3 11 1 3-1 2-3 2-3 1-7-4c-9-4-9-4-9 1v4l3 9c7 16 19 34 34 49l7 7v9l1 9 1 6c3 13 9 24 22 39l7 8 11 7 1-1h3zm-8-6a87 87 0 0 1-34-58l-1-10 1-14 3-31 1-24v-8l7 6 15 13 8 6v24a687 687 0 0 0 6 91v7l-1 1-5-3zm174-89a346 346 0 0 0 121-179l1-3h-2l-5-2c-11-2-19-7-24-15l-2-5-1-7v-6l1-4c1-4 7-14 15-25 6-8 6-7-2-9-25-5-30-5-31 2s-6 20-11 29l-4 7-11 11-8 4c-9 4-14 5-27 7l-8 1-9-1-19-2-10-1-6 2-9 5-5 3v-3l1-7 1-6-11-3v1a1250 1250 0 0 0-12 69c-5 35-8 80-6 101l1 10 7 4c17 11 37 22 52 27l7 2 8-2zm44-72a349 349 0 0 0-43-14l-9-3-8-8h2l17 2 13 3 10 3c12 4 27 10 28 12l1 2-2 2c-3 3-3 3-9 1zm-119 66 1-4-3-2-2-1v4l1 5c0 3 2 2 3-2zM394 486l2-13 2-20 3-23 1-20v-8l-6-4c-15-11-64-38-65-37-10 10-1 60 12 71l4 3 10 3c9 3 12 5 8 5l-22-6-5-3-4-5c-7-9-12-23-13-39l-1-7 2-12a149 149 0 0 1 4-20c-2-2-38-15-39-15l4 16 4 15v12l1 12-3 7-7 6h-13l-6-4c-12-6-41-28-47-35l-2-1 3 1 10 8 33 20 8 4h12l4-4v-31l-5-19-2-1c-2-2-12-7-33-14-33-12-66-20-83-20h-7l2 3a1423 1423 0 0 0 92 107l5 5 10-9h1l6 3 3 4v4l-9 8 3 2c3 4 3 3 8-1 5-5 7-5 11 0l4 3v4l-8 7 2 2c11 9 37 28 43 31l7 4 7 1a717 717 0 0 0 48 5l1-5zm-116-35-4-4-3-3v1c0 2 5 8 7 8zm2-8-3-3-4 3 7 8 3-5zm331 7-4-6c-5-6-9-15-11-23l-2-7 1-6 2-15c3-9 3-8-9-10l-25-4-1-1 1-4 4-15 3-13c-1-1-9 25-14 43a10443 10443 0 0 1-9 39l4 3c16 11 60 25 60 19zm-323-7c0-2-7-8-7-7-1 1 4 8 6 8l1-1zm3-5c-4-5-6-6-7-4l-1 1 6 7 3-3zm-30-2c-3-5-7-9-7-7l7 8h1zm3-9-3-4-2 2c-2 2-2 2 1 6l3 4 4-4zm7-1c-1-3-6-7-7-6 0 1 5 7 7 7h1zm3-2 1-1-2-3c-3-3-5-4-6-2v1l2 3c4 4 4 4 5 2zm399-17 2-7-2-2-9 2-2 6-1 6 2 1 7 2h1zm-270-62c-1-12-4-21-7-27l-2-6-8-2a376 376 0 0 0-40-8l-43-6-14-2h-34c-41 0-75 1-98 4l-4 1v2a279 279 0 0 1 32 3 464 464 0 0 1 87 20c16 4 60 17 75 23l49 22 8 3v-20zm341-24c0-16-3-36-10-64-3-14-4-14-5-4l-2 17-2 9-4 7-4 8-3 1-1-1-11-22c-2-6-2-5-4 3l-1 7-3 7-4 9-1 2-4-1-2-5-3-5h-1l1 2 3 14 3 14 1 2 6-12c7-14 7-14 10-12l2 2 2 7 3 16 2 9 6-14c6-15 8-19 12-18l2 1 2 4c1 3 5 17 7 31l1 7 1-6 1-15z"/></svg>
