<?xml version="1.0" encoding="UTF-8" standalone="no"?>
<!-- Generator: Adobe Illustrator 24.2.1, SVG Export Plug-In . SVG Version: 6.00 Build 0)  -->

<svg
   version="1.1"
   x="0px"
   y="0px"
   viewBox="0 0 586 559"
   style="enable-background:new 0 0 586 559;"
   xml:space="preserve"
   id="svg37"
   sodipodi:docname="gitlab.svg"
   inkscape:version="1.1.1 (3bf5ae0d25, 2021-09-20)"
   xmlns:inkscape="http://www.inkscape.org/namespaces/inkscape"
   xmlns:sodipodi="http://sodipodi.sourceforge.net/DTD/sodipodi-0.dtd"
   xmlns="http://www.w3.org/2000/svg"
   xmlns:svg="http://www.w3.org/2000/svg"
   xmlns:sketch="http://www.bohemiancoding.com/sketch/ns"><defs
   id="defs41" /><sodipodi:namedview
   id="namedview39"
   pagecolor="#ffffff"
   bordercolor="#666666"
   borderopacity="1.0"
   inkscape:pageshadow="2"
   inkscape:pageopacity="0.0"
   inkscape:pagecheckerboard="0"
   showgrid="false"
   inkscape:snap-bbox="true"
   inkscape:bbox-paths="true"
   inkscape:bbox-nodes="true"
   inkscape:snap-page="true"
   inkscape:zoom="0.58154275"
   inkscape:cx="253.6357"
   inkscape:cy="359.38888"
   inkscape:window-width="1128"
   inkscape:window-height="683"
   inkscape:window-x="0"
   inkscape:window-y="0"
   inkscape:window-maximized="1"
   inkscape:current-layer="g13" />
<style
   type="text/css"
   id="style2">
	.st0{fill:#FAFAFA;}
	.st1{fill:#F0F0F0;}
	.st2{fill:#FFFFFF;}
	.st3{fill:#E24329;}
	.st4{fill:#FCA326;}
	.st5{fill:#FC6D26;}
	.st6{fill:#8C929D;}
	.st7{fill:#2E2E2E;}
	.st8{fill:none;stroke:#FCA326;stroke-width:16;stroke-linecap:round;stroke-linejoin:round;stroke-miterlimit:10;}
	.st9{fill:none;stroke:#FC6D26;stroke-width:16;stroke-linecap:round;stroke-linejoin:round;stroke-miterlimit:10;}
	.st10{fill:none;stroke:#E24329;stroke-width:16;stroke-linecap:round;stroke-linejoin:round;stroke-miterlimit:10;}
	.st11{fill:none;stroke:#F0F0F0;stroke-miterlimit:10;}
	.st12{fill:#231F20;}
	.st13{fill:none;stroke:#231F20;stroke-width:16;stroke-linecap:round;stroke-linejoin:round;stroke-miterlimit:10;}
	.st14{display:none;}
	.st15{display:inline;opacity:0.1;fill:#E828E3;}
	.st16{display:inline;}
	.st17{opacity:0.1;fill:#E828E3;}
	.st18{font-family:'SourceSansPro-Semibold';}
	.st19{font-size:24px;}
	.st20{display:inline;fill:#DB3B21;}
	.st21{display:inline;fill:#FC6D26;}
	.st22{display:inline;fill:#2E2E2E;}
	.st23{display:inline;fill:#6E49CB;}
	.st24{display:inline;fill:#380D75;}
	.st25{display:inline;fill:#FCA121;}
	.st26{opacity:0.6;fill:none;stroke:#231F20;stroke-width:2;stroke-miterlimit:10;stroke-dasharray:12,6;}
	.st27{fill:none;stroke:#444444;stroke-width:1.5339;stroke-miterlimit:10;}
</style>
<g
   id="logo_art"
   transform="matrix(1.5578562,0,0,1.5578562,-163.47307,-155.92074)">
	<g
   id="g13">
		<path
   id="path50_2_"
   style="stroke-width:1.55786;fill:#000000;fill-opacity:1"
   class="st3"
   d="M 128.33594 37.279297 C 124.31803 37.279297 120.28679 39.576188 118.73828 44.167969 L 60.542969 223.66992 L 196.26367 223.66992 L 293.01953 521.7207 L 389.91602 223.66797 L 196.26367 223.66797 L 137.85352 44.167969 C 136.35875 39.576188 132.35384 37.279297 128.33594 37.279297 z M 457.73828 37.279297 C 453.72038 37.279297 449.71547 39.576188 448.2207 44.167969 L 389.91797 223.66992 L 525.63867 223.66992 L 467.33594 44.167969 C 465.78743 39.576188 461.75619 37.279297 457.73828 37.279297 z "
   transform="matrix(0.64190777,0,0,0.64190777,104.93463,100.08673)" />
		<path
   id="path66_6_"
   style="stroke-width:1.55786;fill:#000000;fill-opacity:1;opacity:0.35859892"
   class="st4"
   d="M 60.542969 223.66992 L 31.037109 314.2207 C 28.366944 322.44307 31.249134 331.51918 38.296875 336.64453 L 293.01953 521.7207 L 293.02148 521.7207 L 293.02148 521.71875 L 60.542969 223.66992 z M 293.02148 521.71875 L 547.7793 336.64453 C 554.82704 331.51918 557.70923 322.44307 555.03906 314.2207 L 525.63867 223.66992 L 293.02148 521.71875 z "
   transform="matrix(0.64190777,0,0,0.64190777,104.93463,100.08673)" />
		
		
		
		<path
   id="polygon9"
   style="stroke-width:1.55786;fill:#000000;fill-opacity:1;opacity:0.66896471"
   class="st5"
   d="M 60.542969 223.66992 L 293.01953 521.7207 L 196.26367 223.66992 L 60.542969 223.66992 z M 293.01953 521.7207 L 525.63867 223.66992 L 389.91602 223.66992 L 293.01953 521.7207 z "
   transform="matrix(0.64190777,0,0,0.64190777,104.93463,100.08673)" />
		
	</g>
</g>
<g
   id="spacing_guides"
   class="st14">
	<path
   id="path40_18_"
   sketch:type="MSShapeGroup"
   class="st15"
   d="M0,0.5v124h586V0.5H0L0,0.5z" />
	<path
   id="path40_16_"
   sketch:type="MSShapeGroup"
   class="st15"
   d="M0,435.5v124h586v-124H0L0,435.5z" />
	<path
   id="path40_15_"
   sketch:type="MSShapeGroup"
   class="st15"
   d="M462.2,560h124V0h-124V560L462.2,560z" />
	<g
   class="st16"
   id="g21">
		<text
   transform="matrix(1 0 0 1 511.2881 283.3319)"
   class="st18 st19"
   id="text19">1x</text>
	</g>
	<g
   class="st16"
   id="g25">
		<text
   transform="matrix(1 0 0 1 281.2881 500.9978)"
   class="st18 st19"
   id="text23">1x</text>
	</g>
	<g
   class="st16"
   id="g29">
		<text
   transform="matrix(1 0 0 1 281.2881 65.998)"
   class="st18 st19"
   id="text27">1x</text>
	</g>
	<path
   id="path40_5_"
   sketch:type="MSShapeGroup"
   class="st15"
   d="M0,560h124V0H0V560L0,560z" />
	<g
   class="st16"
   id="g34">
		<text
   transform="matrix(1 0 0 1 51.2881 283.3319)"
   class="st18 st19"
   id="text32">1x</text>
	</g>
</g>
</svg>
